<svg width="51" height="51" viewBox="0 0 51 51" fill="none" xmlns="http://www.w3.org/2000/svg">
<path d="M0.538334 13.2332H12.8688V25.5637H1.61884C1.02209 25.5637 0.538334 25.0799 0.538334 24.4832V13.2332Z" fill="#7E18FF" stroke="#1F1F1F" stroke-width="0.381356"/>
<rect x="12.8694" y="25.5637" width="12.3305" height="12.3305" fill="#7E18FF" stroke="#1F1F1F" stroke-width="0.381356"/>
<path d="M25.1995 25.5637H36.4495C37.0462 25.5637 37.53 26.0475 37.53 26.6442V36.8137C37.53 37.4105 37.0462 37.8942 36.4495 37.8942H25.1995V25.5637Z" fill="#00FF84" stroke="#1F1F1F" stroke-width="0.381356"/>
<path d="M1.61884 0.902592H12.8688V13.2331H0.538334V1.9831C0.538334 1.38635 1.02209 0.902592 1.61884 0.902592Z" fill="#7E18FF" stroke="#1F1F1F" stroke-width="0.381356"/>
<rect x="12.8694" y="0.902592" width="12.3305" height="12.3305" fill="#7E18FF" stroke="#1F1F1F" stroke-width="0.381356"/>
<rect x="25.1995" y="0.902592" width="12.3305" height="12.3305" fill="#00FF84" stroke="#1F1F1F" stroke-width="0.381356"/>
<path d="M37.5305 0.902592H48.7805C49.3773 0.902592 49.861 1.38635 49.861 1.9831V12.1526C49.861 12.7493 49.3773 13.2331 48.7805 13.2331H37.5305V0.902592Z" fill="#00FF84" stroke="#1F1F1F" stroke-width="0.381356"/>
<path d="M12.8694 37.8938H25.1999V49.1438C25.1999 49.7406 24.7161 50.2243 24.1194 50.2243H12.8694V37.8938Z" fill="#7E18FF" stroke="#1F1F1F" stroke-width="0.381356"/>
<path d="M1.61884 37.8938H12.8688V50.2243H1.61884C1.02209 50.2243 0.538334 49.7406 0.538334 49.1438V38.9743C0.538334 38.3776 1.02209 37.8938 1.61884 37.8938Z" fill="#7E18FF" stroke="#1F1F1F" stroke-width="0.381356"/>
</svg>
